<svg xmlns="http://www.w3.org/2000/svg" width="130" height="50" fill="none">
  <g clip-path="url(#a)">
    <path fill="#009AD8" d="M32.587 9.519c-.957-1.21-2.276-1.827-3.929-1.827-1.675 0-3.233.587-4.625 1.747-1.385 1.16-2.27 2.574-2.617 4.212l-1 4.676c-.124-.24-.646-.283-.863-.261-1.153.094-1.66.863-1.66 1.928 0 .152.014.297.05.442.087.414.551 1.907 1.276 3.517l-2.044 9.402c-.102.515-.007.986.283 1.363.297.384.732.587 1.261.587.515 0 .979-.174 1.392-.514.406-.341.667-.762.761-1.247l1.334-5.988c.674.333 1.4.645 2.277.645 1.674 0 3.226-.588 4.617-1.747 1.392-1.16 2.27-2.574 2.617-4.212l1.798-8.388c.102-.435.153-.863.153-1.269a4.913 4.913 0 0 0-1.08-3.066Zm-2.769 4.132-1.798 8.395c-.13.66-.485 1.225-1.066 1.71-.58.486-1.188.726-1.863.726-.529 0-.957-.16-1.326-.493-.348-.312-.522-.703-.522-1.196 0-.13.014-.276.058-.443l1.82-8.51c.152-.675.507-1.247 1.087-1.726.58-.478 1.182-.71 1.841-.71.624 0 1.088.21 1.428.681.269.305.4.645.4 1.051 0 .174-.023.341-.059.515Zm43.599-2.994c-.957-1.218-2.277-1.827-3.93-1.827-1.689 0-3.247.587-4.632 1.74-1.377 1.153-2.255 2.573-2.646 4.93l-.5 2.32h-.704c-.95 0-1.884.862-1.884 1.928 0 1.022.754 1.856 1.761 1.92l-.391 1.813a5.717 5.717 0 0 0-.174 1.037c-.066 1.124.348 2.139 1.03 3.008.942 1.197 2.276 1.806 3.972 1.806 1.646 0 2.849-.406 4.335-1.472.993-.703 1.733-1.29 2.001-2.653.102-.515.007-.986-.29-1.363-.297-.384-.732-.587-1.261-.587-.493 0-.914.166-1.334.529-.363.311-.631.797-1 1.102-.588.493-1.197.725-1.857.725-.638 0-1.116-.21-1.457-.645a1.661 1.661 0 0 1-.37-1.088c0-.16.022-.326.058-.507l.486-1.726h2.429c1.66 0 3.248-.899 4.647-2.066 1.392-1.167 2.276-2.987 2.624-4.596.102-.435.152-.863.152-1.269.015-1.123-.348-2.153-1.065-3.059Zm-3.937 6.568c-.573.478-1.167.71-1.827.71h-2.225l.522-2.95c.152-.681.507-1.247 1.08-1.726.573-.478 1.181-.71 1.848-.71.515 0 .936.167 1.284.515a1.7 1.7 0 0 1 .514 1.261c.008.827-.413 2.255-1.196 2.9Zm-22.756 6.148 2.682-12.6c.102-.515.008-.986-.282-1.363-.298-.384-.733-.587-1.262-.587-.515 0-.979.174-1.392.515-.406.34-.667.76-.761 1.246l-2.682 12.6c-.13.66-.486 1.218-1.066 1.711-.58.486-1.189.725-1.863.725-.638 0-1.117-.21-1.457-.645a1.66 1.66 0 0 1-.37-1.088c0-.16.022-.326.058-.514l2.682-12.6c.102-.515.008-.986-.282-1.363-.298-.384-.733-.587-1.262-.587-.514 0-.978.174-1.384.515-.406.34-.667.76-.762 1.246L34.64 23.177a6.277 6.277 0 0 0-.152 1.334 4.77 4.77 0 0 0 1.03 3.008c.942 1.196 2.276 1.805 3.972 1.805 1.29 0 2.508-.355 3.647-1.065a1.95 1.95 0 0 0 1.797 1.189 1.958 1.958 0 0 0 1.9-2.436c-.123-.537-.486-1.726-.116-3.61.007 0 .007-.015.007-.03Zm14.26-14.115c-.297-.283-.675-.428-1.124-.428-1.646 0-3.168.558-4.524 1.653a1.949 1.949 0 0 0-1.457-.652 1.958 1.958 0 0 0-1.747 2.841c.007.022.022.037.03.058.13.254.608 1.305.325 2.726l-2.544 11.94c-.109.522-.008.979.282 1.363.298.384.733.587 1.262.587a2.12 2.12 0 0 0 1.392-.515c.406-.34.66-.76.761-1.247L56.322 15c.152-.681.5-1.247 1.08-1.725.573-.478 1.175-.71 1.85-.71.572 0 1.087-.218 1.521-.646.443-.427.667-.942.667-1.522a1.507 1.507 0 0 0-.456-1.138Z"/>
    <path fill="#009AD8" d="M32.587 9.519c-.957-1.21-2.276-1.827-3.929-1.827-1.675 0-3.233.587-4.625 1.747-1.385 1.16-2.27 2.574-2.617 4.212l-1 4.676c-.124-.24-.646-.283-.863-.261-1.153.094-1.66.863-1.66 1.928 0 .152.014.297.05.442.087.414.551 1.907 1.276 3.517l-2.044 9.402c-.102.515-.007.986.283 1.363.297.384.732.587 1.261.587.515 0 .979-.174 1.392-.514.406-.341.667-.762.761-1.247l1.334-5.988c.674.333 1.4.645 2.277.645 1.674 0 3.226-.588 4.617-1.747 1.392-1.16 2.27-2.574 2.617-4.212l1.798-8.388c.102-.435.153-.863.153-1.269a4.913 4.913 0 0 0-1.08-3.066Zm-2.769 4.132-1.798 8.395c-.13.66-.485 1.225-1.066 1.71-.58.486-1.188.726-1.863.726-.529 0-.957-.16-1.326-.493-.348-.312-.522-.703-.522-1.196 0-.13.014-.276.058-.443l1.82-8.51c.152-.675.507-1.247 1.087-1.726.58-.478 1.182-.71 1.841-.71.624 0 1.088.21 1.428.681.269.305.4.645.4 1.051 0 .174-.023.341-.059.515Zm43.599-2.994c-.957-1.218-2.277-1.827-3.93-1.827-1.689 0-3.247.587-4.632 1.74-1.377 1.153-2.255 2.573-2.646 4.93l-.5 2.32h-.704c-.95 0-1.884.862-1.884 1.928 0 1.022.754 1.856 1.761 1.92l-.391 1.813a5.717 5.717 0 0 0-.174 1.037c-.066 1.124.348 2.139 1.03 3.008.942 1.197 2.276 1.806 3.972 1.806 1.646 0 2.849-.406 4.335-1.472.993-.703 1.733-1.29 2.001-2.653.102-.515.007-.986-.29-1.363-.297-.384-.732-.587-1.261-.587-.493 0-.914.166-1.334.529-.363.311-.631.797-1 1.102-.588.493-1.197.725-1.857.725-.638 0-1.116-.21-1.457-.645a1.661 1.661 0 0 1-.37-1.088c0-.16.022-.326.058-.507l.486-1.726h2.429c1.66 0 3.248-.899 4.647-2.066 1.392-1.167 2.276-2.987 2.624-4.596.102-.435.152-.863.152-1.269.015-1.123-.348-2.153-1.065-3.059Zm-3.937 6.568c-.573.478-1.167.71-1.827.71h-2.225l.522-2.95c.152-.681.507-1.247 1.08-1.726.573-.478 1.181-.71 1.848-.71.515 0 .936.167 1.284.515a1.7 1.7 0 0 1 .514 1.261c.008.827-.413 2.255-1.196 2.9Zm-22.756 6.148 2.682-12.6c.102-.515.008-.986-.282-1.363-.298-.384-.733-.587-1.262-.587-.515 0-.979.174-1.392.515-.406.34-.667.76-.761 1.246l-2.682 12.6c-.13.66-.486 1.218-1.066 1.711-.58.486-1.189.725-1.863.725-.638 0-1.117-.21-1.457-.645a1.66 1.66 0 0 1-.37-1.088c0-.16.022-.326.058-.514l2.682-12.6c.102-.515.008-.986-.282-1.363-.298-.384-.733-.587-1.262-.587-.514 0-.978.174-1.384.515-.406.34-.667.76-.762 1.246L34.64 23.177a6.277 6.277 0 0 0-.152 1.334 4.77 4.77 0 0 0 1.03 3.008c.942 1.196 2.276 1.805 3.972 1.805 1.29 0 2.508-.355 3.647-1.065a1.95 1.95 0 0 0 1.797 1.189 1.958 1.958 0 0 0 1.9-2.436c-.123-.537-.486-1.726-.116-3.61.007 0 .007-.015.007-.03Zm14.26-14.115c-.297-.283-.675-.428-1.124-.428-1.646 0-3.168.558-4.524 1.653a1.949 1.949 0 0 0-1.457-.652 1.958 1.958 0 0 0-1.747 2.841c.007.022.022.037.03.058.13.254.608 1.305.325 2.726l-2.544 11.94c-.109.522-.008.979.282 1.363.298.384.733.587 1.262.587a2.12 2.12 0 0 0 1.392-.515c.406-.34.66-.76.761-1.247L56.322 15c.152-.681.5-1.247 1.08-1.725.573-.478 1.175-.71 1.85-.71.572 0 1.087-.218 1.521-.646.443-.427.667-.942.667-1.522a1.507 1.507 0 0 0-.456-1.138Z"/>
    <path fill="#F08006" d="M74.714 46.368c-.348 0-.638-.138-.833-.392-.189-.246-.254-.558-.189-.898l2.334-10.976c.066-.326.232-.602.5-.827.276-.224.58-.34.921-.34.348 0 .638.13.834.384.188.246.254.558.188.899l-2.327 10.976a1.428 1.428 0 0 1-.507.826 1.39 1.39 0 0 1-.92.348ZM66.008 50c-1.11 0-1.994-.399-2.61-1.189a3.13 3.13 0 0 1-.674-1.979c0-.276.029-.558.094-.841a1.48 1.48 0 0 1 .507-.84c.276-.226.58-.342.914-.342.348 0 .638.13.834.385.188.246.253.558.188.898v.008a1.644 1.644 0 0 0-.036.311c0 .327.109.595.326.798.225.21.507.319.855.319.4 0 .798-.16 1.19-.478.39-.32.623-.682.717-1.088l.37-1.733a4.315 4.315 0 0 1-1.5.269c-1.125 0-2.002-.4-2.625-1.19-.443-.543-.66-1.196-.66-1.92 0-.29.036-.595.102-.907l.775-3.653c.225-1.08.805-2.009 1.704-2.762.906-.754 1.928-1.139 3.037-1.139 1.08 0 1.95.406 2.581 1.204a3.15 3.15 0 0 1 .703 2.008c0 .268-.036.55-.094.834l-1.95 9.141c-.225 1.051-.812 1.972-1.733 2.733-.927.761-1.942 1.153-3.015 1.153Zm.616-8.337c.24.276.55.413.942.413.428 0 .82-.145 1.197-.45.376-.296.601-.644.688-1.058l.812-3.733v-.007c.022-.095.036-.189.036-.29 0-.269-.087-.5-.268-.718l-.007-.007c-.225-.29-.522-.428-.914-.428-.434 0-.826.152-1.203.464a1.99 1.99 0 0 0-.703 1.124l-.769 3.653v.008a1.252 1.252 0 0 0-.036.326 1.16 1.16 0 0 0 .225.703Zm21.234-7.648c-.638-.805-1.516-1.218-2.61-1.218-1.124 0-2.153.391-3.074 1.153-.914.768-1.5 1.71-1.754 3.276l-1.146 5.3a3.565 3.565 0 0 0-.116.688c-.043.747.232 1.421.682 2.001.623.798 1.515 1.204 2.638 1.204 1.088 0 1.893-.268 2.879-.972.66-.47 1.145-.855 1.326-1.761.073-.341.007-.66-.188-.907a1.015 1.015 0 0 0-.834-.391c-.326 0-.609.109-.885.355-.239.21-.42.53-.66.732-.39.327-.797.479-1.232.479-.42 0-.739-.138-.971-.428a1.092 1.092 0 0 1-.24-.725c0-.101.015-.217.037-.34l.326-1.146h1.61c1.102 0 2.16-.594 3.088-1.37.928-.776 1.515-1.986 1.74-3.052.065-.29.101-.573.101-.841 0-.754-.239-1.443-.717-2.037Zm-2.618 4.357c-.376.319-.775.471-1.21.471h-1.48l.348-1.957c.101-.457.333-.827.718-1.146.377-.319.783-.471 1.232-.471.34 0 .623.109.855.34.233.233.341.508.341.842 0 .543-.282 1.493-.805 1.92Zm-30.092-4.357c-.638-.805-1.515-1.218-2.61-1.218-1.116 0-2.153.391-3.074 1.153-.913.768-1.5 1.71-1.754 3.276l-1.145 5.3a3.565 3.565 0 0 0-.116.688c-.044.747.231 1.421.68 2.001.624.798 1.516 1.204 2.64 1.204 1.087 0 1.892-.268 2.878-.972.66-.47 1.145-.855 1.326-1.761.066-.341 0-.66-.188-.907a1.016 1.016 0 0 0-.834-.391c-.326 0-.609.109-.884.355-.24.21-.42.53-.66.732-.391.327-.797.479-1.232.479-.42 0-.74-.138-.972-.428-.167-.203-.239-.442-.239-.725 0-.101.014-.217.036-.34l.327-1.146h1.609c1.102 0 2.16-.594 3.088-1.37.928-.776 1.515-1.986 1.74-3.052.065-.29.102-.573.102-.841a3.22 3.22 0 0 0-.718-2.037Zm-2.617 4.357c-.377.319-.776.471-1.21.471h-1.48l.348-1.957c.102-.457.334-.827.718-1.146.377-.319.783-.471 1.232-.471.341 0 .624.109.856.34.232.233.34.508.34.842 0 .543-.282 1.493-.804 1.92Zm-18.298-4.357c-.638-.805-1.515-1.218-2.61-1.218-1.123 0-2.153.391-3.074 1.153-.913.768-1.5 1.71-1.754 3.276l-1.145 5.3a3.565 3.565 0 0 0-.116.688c-.044.747.232 1.421.681 2.001.624.798 1.515 1.204 2.639 1.204 1.087 0 1.892-.268 2.878-.972.66-.47 1.153-.855 1.327-1.761.065-.341 0-.66-.189-.907a1.016 1.016 0 0 0-.834-.391c-.326 0-.609.109-.884.355-.24.21-.42.53-.66.732-.391.327-.797.479-1.232.479-.42 0-.74-.138-.972-.428a1.097 1.097 0 0 1-.239-.725c0-.101.015-.217.037-.34l.326-1.146h1.61c1.101 0 2.16-.594 3.087-1.37.928-.776 1.515-1.986 1.74-3.052.066-.29.102-.573.102-.841a3.18 3.18 0 0 0-.718-2.037Zm-2.617 4.357c-.377.319-.776.471-1.21.471h-1.48l.348-1.957c.102-.457.334-.827.718-1.146.377-.319.783-.471 1.232-.471.341 0 .624.109.849.34.232.233.34.508.34.842.008.543-.275 1.493-.797 1.92Zm12.991-4.299c-.623-.798-1.508-1.196-2.639-1.196a4.62 4.62 0 0 0-2.559.79c-.21-.268-.558-.58-1.094-.58a1.296 1.296 0 0 0-1.29 1.42c0 .015.014.073.014.102.014.087.043.174.072.254.123.428.276 1.124.05 2.11 0 .014-.006.021-.006.036a.891.891 0 0 1-.03.116l-1.732 8.047c-.065.34 0 .66.188.906.196.254.486.391.834.391.34 0 .653-.116.92-.34.27-.225.443-.508.508-.827l1.776-8.351c.087-.435.32-.812.71-1.131.385-.319.791-.478 1.233-.478.42 0 .74.137.972.427.16.203.239.435.239.718 0 .102-.015.217-.036.34l-1.776 8.345c-.066.34 0 .66.188.906.196.254.486.391.834.391.34 0 .652-.116.92-.34a1.45 1.45 0 0 0 .508-.827l1.783-8.351c.066-.305.102-.602.102-.885a3.184 3.184 0 0 0-.689-1.993Zm19.255-1.001a1.046 1.046 0 0 0-.747-.29c-1.087 0-2.102.37-3.001 1.095a1.295 1.295 0 0 0-.964-.435 1.301 1.301 0 0 0-1.204 1.783c.03.087.486.885.283 1.936l-1.682 7.924a1.07 1.07 0 0 0 .189.906c.195.254.485.392.84.392.341 0 .653-.117.921-.341.268-.225.442-.5.508-.827l1.776-8.344a2.02 2.02 0 0 1 .718-1.145c.376-.32.782-.471 1.225-.471.377 0 .717-.146 1.007-.428.29-.283.443-.624.443-1.008a1.064 1.064 0 0 0-.312-.747Z"/>
    <path fill="#F08006" d="M74.714 46.368c-.348 0-.638-.138-.833-.392-.189-.246-.254-.558-.189-.898l2.334-10.976c.066-.326.232-.602.5-.827.276-.224.58-.34.921-.34.348 0 .638.13.834.384.188.246.254.558.188.899l-2.327 10.976a1.428 1.428 0 0 1-.507.826 1.39 1.39 0 0 1-.92.348ZM66.008 50c-1.11 0-1.994-.399-2.61-1.189a3.13 3.13 0 0 1-.674-1.979c0-.276.029-.558.094-.841a1.48 1.48 0 0 1 .507-.84c.276-.226.58-.342.914-.342.348 0 .638.13.834.385.188.246.253.558.188.898v.008a1.644 1.644 0 0 0-.036.311c0 .327.109.595.326.798.225.21.507.319.855.319.4 0 .798-.16 1.19-.478.39-.32.623-.682.717-1.088l.37-1.733a4.315 4.315 0 0 1-1.5.269c-1.125 0-2.002-.4-2.625-1.19-.443-.543-.66-1.196-.66-1.92 0-.29.036-.595.102-.907l.775-3.653c.225-1.08.805-2.009 1.704-2.762.906-.754 1.928-1.139 3.037-1.139 1.08 0 1.95.406 2.581 1.204a3.15 3.15 0 0 1 .703 2.008c0 .268-.036.55-.094.834l-1.95 9.141c-.225 1.051-.812 1.972-1.733 2.733-.927.761-1.942 1.153-3.015 1.153Zm.616-8.337c.24.276.55.413.942.413.428 0 .82-.145 1.197-.45.376-.296.601-.644.688-1.058l.812-3.733v-.007c.022-.095.036-.189.036-.29 0-.269-.087-.5-.268-.718l-.007-.007c-.225-.29-.522-.428-.914-.428-.434 0-.826.152-1.203.464a1.99 1.99 0 0 0-.703 1.124l-.769 3.653v.008a1.252 1.252 0 0 0-.036.326 1.16 1.16 0 0 0 .225.703Zm21.234-7.648c-.638-.805-1.516-1.218-2.61-1.218-1.124 0-2.153.391-3.074 1.153-.914.768-1.5 1.71-1.754 3.276l-1.146 5.3a3.565 3.565 0 0 0-.116.688c-.043.747.232 1.421.682 2.001.623.798 1.515 1.204 2.638 1.204 1.088 0 1.893-.268 2.879-.972.66-.47 1.145-.855 1.326-1.761.073-.341.007-.66-.188-.907a1.015 1.015 0 0 0-.834-.391c-.326 0-.609.109-.885.355-.239.21-.42.53-.66.732-.39.327-.797.479-1.232.479-.42 0-.739-.138-.971-.428a1.092 1.092 0 0 1-.24-.725c0-.101.015-.217.037-.34l.326-1.146h1.61c1.102 0 2.16-.594 3.088-1.37.928-.776 1.515-1.986 1.74-3.052.065-.29.101-.573.101-.841 0-.754-.239-1.443-.717-2.037Zm-2.618 4.357c-.376.319-.775.471-1.21.471h-1.48l.348-1.957c.101-.457.333-.827.718-1.146.377-.319.783-.471 1.232-.471.34 0 .623.109.855.34.233.233.341.508.341.842 0 .543-.282 1.493-.805 1.92Zm-30.092-4.357c-.638-.805-1.515-1.218-2.61-1.218-1.116 0-2.153.391-3.074 1.153-.913.768-1.5 1.71-1.754 3.276l-1.145 5.3a3.565 3.565 0 0 0-.116.688c-.044.747.231 1.421.68 2.001.624.798 1.516 1.204 2.64 1.204 1.087 0 1.892-.268 2.878-.972.66-.47 1.145-.855 1.326-1.761.066-.341 0-.66-.188-.907a1.016 1.016 0 0 0-.834-.391c-.326 0-.609.109-.884.355-.24.21-.42.53-.66.732-.391.327-.797.479-1.232.479-.42 0-.74-.138-.972-.428-.167-.203-.239-.442-.239-.725 0-.101.014-.217.036-.34l.327-1.146h1.609c1.102 0 2.16-.594 3.088-1.37.928-.776 1.515-1.986 1.74-3.052.065-.29.102-.573.102-.841a3.22 3.22 0 0 0-.718-2.037Zm-2.617 4.357c-.377.319-.776.471-1.21.471h-1.48l.348-1.957c.102-.457.334-.827.718-1.146.377-.319.783-.471 1.232-.471.341 0 .624.109.856.34.232.233.34.508.34.842 0 .543-.282 1.493-.804 1.92Zm-18.298-4.357c-.638-.805-1.515-1.218-2.61-1.218-1.123 0-2.153.391-3.074 1.153-.913.768-1.5 1.71-1.754 3.276l-1.145 5.3a3.565 3.565 0 0 0-.116.688c-.044.747.232 1.421.681 2.001.624.798 1.515 1.204 2.639 1.204 1.087 0 1.892-.268 2.878-.972.66-.47 1.153-.855 1.327-1.761.065-.341 0-.66-.189-.907a1.016 1.016 0 0 0-.834-.391c-.326 0-.609.109-.884.355-.24.21-.42.53-.66.732-.391.327-.797.479-1.232.479-.42 0-.74-.138-.972-.428a1.097 1.097 0 0 1-.239-.725c0-.101.015-.217.037-.34l.326-1.146h1.61c1.101 0 2.16-.594 3.087-1.37.928-.776 1.515-1.986 1.74-3.052.066-.29.102-.573.102-.841a3.18 3.18 0 0 0-.718-2.037Zm-2.617 4.357c-.377.319-.776.471-1.21.471h-1.48l.348-1.957c.102-.457.334-.827.718-1.146.377-.319.783-.471 1.232-.471.341 0 .624.109.849.34.232.233.34.508.34.842.008.543-.275 1.493-.797 1.92Zm12.991-4.299c-.623-.798-1.508-1.196-2.639-1.196a4.62 4.62 0 0 0-2.559.79c-.21-.268-.558-.58-1.094-.58a1.296 1.296 0 0 0-1.29 1.42c0 .015.014.073.014.102.014.087.043.174.072.254.123.428.276 1.124.05 2.11 0 .014-.006.021-.006.036a.891.891 0 0 1-.03.116l-1.732 8.047c-.065.34 0 .66.188.906.196.254.486.391.834.391.34 0 .653-.116.92-.34.27-.225.443-.508.508-.827l1.776-8.351c.087-.435.32-.812.71-1.131.385-.319.791-.478 1.233-.478.42 0 .74.137.972.427.16.203.239.435.239.718 0 .102-.015.217-.036.34l-1.776 8.345c-.066.34 0 .66.188.906.196.254.486.391.834.391.34 0 .652-.116.92-.34a1.45 1.45 0 0 0 .508-.827l1.783-8.351c.066-.305.102-.602.102-.885a3.184 3.184 0 0 0-.689-1.993Zm19.255-1.001a1.046 1.046 0 0 0-.747-.29c-1.087 0-2.102.37-3.001 1.095a1.295 1.295 0 0 0-.964-.435 1.301 1.301 0 0 0-1.204 1.783c.03.087.486.885.283 1.936l-1.682 7.924a1.07 1.07 0 0 0 .189.906c.195.254.485.392.84.392.341 0 .653-.117.921-.341.268-.225.442-.5.508-.827l1.776-8.344a2.02 2.02 0 0 1 .718-1.145c.376-.32.782-.471 1.225-.471.377 0 .717-.146 1.007-.428.29-.283.443-.624.443-1.008a1.064 1.064 0 0 0-.312-.747Z"/>
    <path fill="#009AD8" d="M101.24 46.39a1.18 1.18 0 0 0 1.138-1c.015-.088.022-.175.037-.262.855-6.147.797-13.57.761-18.986-.015-2.211.043-4.118.029-5.365-.058-5.379-.268-5.915 1.276-3.871 1.856 2.465 4.349 3.313 5.335 3.937 2.53 1.594 2.799 1.319 2.944 1.174.275-.283-.066-.66-.189-.805-.145-.16-.362-.442-.638-.805-1.406-1.834-4.473-5.82-8.547-7.14-.007-.022-.015-.03-.022-.051.74-1.559 1.544-3.936 2.146-5.988.754-2.588 1.559-5.923 1.341-6.83-.043-.18-.13-.304-.268-.362-.355-.159-.667.232-.935.638-1.233 1.9-3.531 7.96-2.922 12.412a8.324 8.324 0 0 0-4.82.246c-1.364.478-2.553.892-3.575 1.24-4.43 1.522-5.161 1.79-5.125 2.349.022.377.471.5.892.594 2.051.442 7.097-1.189 9.75-2.218l.145-.058c.834-.327 1.472-.573 1.871-.493-1.073 3.37-1.501 17.196-1.813 30.455a1.15 1.15 0 0 0 1.189 1.189Z"/>
    <path fill="#F08006" d="M88.488 25.047a7.714 7.714 0 0 1-7.699-7.467c-.13-4.248 3.212-7.815 7.46-7.945a7.691 7.691 0 0 1 5.995 2.573.663.663 0 0 1-.986.885A6.39 6.39 0 0 0 88.3 10.96c-3.516.11-6.285 3.06-6.177 6.576.109 3.516 3.06 6.278 6.575 6.176a6.417 6.417 0 0 0 5.967-4.74.663.663 0 1 1 1.283.34c-.863 3.27-3.828 5.618-7.206 5.727-.087.007-.167.007-.254.007ZM86.045 8.59a.665.665 0 0 1-.645-.507l-.457-1.841a.666.666 0 0 1 .486-.805.666.666 0 0 1 .805.486l.457 1.841a.666.666 0 0 1-.646.827Zm5.133 20.705a.665.665 0 0 1-.645-.507l-.457-1.841a.666.666 0 0 1 .486-.805.666.666 0 0 1 .804.486l.457 1.841a.666.666 0 0 1-.645.826ZM80.064 13.006a.654.654 0 0 1-.34-.095l-1.624-.978a.667.667 0 0 1-.225-.914.668.668 0 0 1 .913-.224l1.624.978a.668.668 0 0 1 .225.914.684.684 0 0 1-.573.319Zm18.269 11.012a.654.654 0 0 1-.34-.095l-1.624-.978a.668.668 0 0 1-.225-.914.667.667 0 0 1 .913-.224l1.624.978a.667.667 0 0 1 .225.914.683.683 0 0 1-.573.319Zm-21.226-3.204a.665.665 0 0 1-.16-1.313l1.841-.456a.666.666 0 0 1 .805.485.666.666 0 0 1-.486.805l-1.84.457a.565.565 0 0 1-.16.021Zm5.284 7.155a.654.654 0 0 1-.34-.095.667.667 0 0 1-.225-.913l.979-1.624a.668.668 0 0 1 .913-.224.667.667 0 0 1 .225.913l-.979 1.624a.683.683 0 0 1-.573.319ZM93.396 9.7a.655.655 0 0 1-.34-.094.668.668 0 0 1-.225-.914l.978-1.624a.667.667 0 0 1 .914-.224.668.668 0 0 1 .225.913l-.979 1.624a.674.674 0 0 1-.573.319Z"/>
  </g>
  <defs>
    <clipPath id="a">
      <path fill="#fff" d="M17.136 0h95.728v50H17.136z"/>
    </clipPath>
  </defs>
</svg>
