<svg width="400" height="140" viewBox="0 0 400 140" fill="none" xmlns="http://www.w3.org/2000/svg">
<mask id="mask0" mask-type="alpha" maskUnits="userSpaceOnUse" x="0" y="0" width="400" height="140">
<path fill-rule="evenodd" clip-rule="evenodd" d="M0 0H400V139.13H0V0Z" fill="white"/>
</mask>
<g mask="url(#mask0)">
<path fill-rule="evenodd" clip-rule="evenodd" d="M137.729 30.4834C129.129 30.4993 121.327 37.7103 121.327 45.4441V107.234C129.926 107.217 137.729 100.008 137.729 92.2758V30.4834ZM362.823 92.622C357.262 92.6206 352.502 90.7427 348.303 86.9144C344.279 83.0579 342.383 78.6696 342.34 73.0296C342.25 70.7165 342.25 65.5993 342.343 63.1917C342.401 57.6889 344.303 53.362 348.336 49.5565C352.399 45.6572 357.135 43.762 362.822 43.762C368.508 43.7627 373.246 45.6586 377.323 49.5751C381.348 53.3627 383.25 57.6896 383.311 63.2455C383.388 65.4979 383.421 70.5924 383.311 73.0944C383.261 78.6696 381.361 83.0648 377.378 86.8806C373.149 90.7427 368.386 92.622 362.823 92.622V92.622ZM399.963 63.1621C399.941 53.398 396.271 44.9401 389.057 38.0263C381.769 31.0476 372.943 27.5076 362.826 27.5049H362.822H362.817C352.704 27.5076 343.883 31.0483 336.593 38.0263C329.377 44.9373 325.71 53.3938 325.686 63.0952C325.637 64.6042 325.637 71.0987 325.686 73.1242C325.748 82.9938 329.421 91.4814 336.593 98.3642L336.691 98.447C344.002 104.7 352.795 107.87 362.818 107.873H362.83C372.844 107.87 381.64 104.7 388.963 98.4518L389.061 98.3642C396.233 91.4821 399.904 82.9925 399.966 73.1628C400.013 71.0987 400.013 64.6049 399.963 63.1621V63.1621ZM302.608 71.3305C297.121 73.5174 295.499 77.8305 294.723 79.8994C293.755 82.4725 292.185 84.7636 289.98 86.8794C285.752 90.7429 280.989 92.6208 275.425 92.6222C269.861 92.6208 265.104 90.7415 260.907 86.9146C256.878 83.0594 254.986 78.6684 254.94 73.0298C254.855 70.7167 254.855 65.5994 254.946 63.1918C255.001 57.6884 256.902 53.3622 260.939 49.556C264.999 45.6574 269.739 43.7608 275.425 43.7608C281.109 43.7615 285.98 45.4408 291.098 50.7636C292.469 52.1939 294.628 53.136 296.887 53.136C299.167 53.136 301.231 52.2125 302.721 50.7208C304.215 49.2263 305.138 47.1622 305.138 44.8843C305.138 42.9167 304.46 41.1029 303.3 39.6925C298.733 34.158 288.869 27.5056 275.431 27.5056H275.427H275.422C265.307 27.5077 256.485 31.0491 249.198 38.0263C241.979 44.9374 238.311 53.3939 238.29 63.0953C238.238 64.6049 238.238 71.0987 238.29 73.1236C238.351 82.9939 242.022 91.4822 249.198 98.3649L249.292 98.4477C256.606 104.7 265.398 107.869 275.423 107.874H275.431C283.136 107.869 290.073 106.02 296.222 102.305C296.222 107.022 293.333 122.877 275.595 122.877C270.531 122.877 266.99 120.943 265.811 120.239C258.793 116.034 251.625 119.163 246.471 124.319C246.471 124.319 256.346 139.13 275.518 139.13C285.291 139.13 294.192 136.23 301.24 129.181C309.079 121.347 312.532 111.524 312.532 100.227V69.6877C312.526 69.687 307.226 69.4891 302.608 71.3305V71.3305ZM225.129 69.6868V100.225C225.129 111.524 221.672 121.345 213.834 129.18C206.788 136.228 197.886 139.128 188.111 139.128C168.943 139.128 159.068 124.318 159.068 124.318C164.222 119.163 171.389 116.031 178.407 120.236C179.587 120.941 183.126 122.875 188.189 122.875C205.931 122.875 208.817 107.022 208.817 102.304C202.672 106.019 195.732 107.868 188.027 107.872H188.016C177.992 107.868 169.201 104.697 161.888 98.4461L161.792 98.3634C154.616 91.4813 150.944 82.9923 150.883 73.1234C150.834 71.0972 150.834 64.6034 150.883 63.0937C150.905 53.393 154.575 44.9351 161.792 38.0248C169.078 31.0468 177.903 27.5061 188.016 27.5034H188.022H188.025C201.465 27.5034 211.331 34.1565 215.894 39.691C217.058 41.0992 217.732 42.9144 217.732 44.882C217.732 47.1599 216.812 49.2234 215.318 50.7186C213.823 52.2103 211.765 53.1337 209.481 53.1337C207.225 53.1337 205.067 52.1903 203.694 50.7613C198.575 45.4379 193.707 43.7592 188.02 43.7586C182.335 43.7592 177.596 45.6551 173.535 49.5537C169.5 53.3599 167.596 57.6861 167.54 63.1889C167.449 65.5958 167.449 70.7158 167.536 73.0268C167.581 78.6654 169.476 83.0565 173.501 86.9117C177.696 90.7413 182.458 92.6179 188.021 92.6192C193.583 92.6179 198.346 90.7399 202.576 86.8772C204.782 84.7592 206.351 82.471 207.316 79.8965C208.092 77.8289 209.716 73.5158 215.202 71.3275C219.826 69.4889 225.129 69.6868 225.129 69.6868V69.6868ZM106.494 107.234C106.199 101.254 102.158 92.0483 92.0018 90.8373H55.8694L97.4991 50.9835C99.2563 49.3055 103.202 43.62 100.393 37.5014C98.1363 32.5807 94.3584 30.4841 87.7556 30.4841H35.897C36.1087 37.3648 39.5418 45.5779 48.6598 47.049H78.2922L34.4991 88.2062C32.7225 89.9124 29.8004 95.1538 32.1067 100.478C34.188 105.277 37.6956 107.236 44.2142 107.236L106.494 107.234ZM128.699 116.994C130.3 118.596 131.101 120.694 131.101 122.792C131.101 125.294 129.981 127.309 128.701 128.589C126.258 131.028 122.935 133.568 118.592 135.362C114.94 136.879 110.935 137.717 106.736 137.717H68.8579H30.9841C22.4276 137.717 14.6821 134.251 9.07517 128.643C3.46759 123.037 0 115.294 0 106.734V68.8593V30.98C0 22.4234 3.46621 14.6779 9.07517 9.07241C14.6814 3.4669 22.4276 0 30.9841 0H68.8579H106.734C110.932 0 114.939 0.834483 118.592 2.35034C123.599 4.42621 126.801 6.98552 129.891 10.3214C131.122 11.6497 132.293 13.6138 132.293 16.12C132.293 18.2172 131.492 20.3152 129.891 21.9166C128.292 23.5159 126.192 24.3186 124.094 24.3186C121.995 24.3186 119.871 23.4903 118.297 21.9166C116.112 19.7297 114.912 18.6062 112.406 17.5462C110.661 16.8055 108.743 16.3972 106.735 16.3972H68.8586H30.9841C26.9621 16.3972 23.3159 18.0324 20.6759 20.6759C18.0359 23.3152 16.4 26.9593 16.4 30.9807V68.86V106.735C16.4 110.76 18.0359 114.404 20.6759 117.043C23.3166 119.684 26.9621 121.321 30.9841 121.321H68.8579H106.734C108.743 121.321 110.66 120.913 112.406 120.172C113.977 119.507 115.617 118.481 117.103 116.995C118.679 115.418 120.803 114.595 122.901 114.595C124.998 114.594 127.099 115.392 128.699 116.994V116.994Z" fill="#F48C00"/>
</g>
</svg>
